<svg width="186" height="26" viewBox="0 0 186 26" fill="none" xmlns="http://www.w3.org/2000/svg">
<path d="M5.11641 17.1595V17.0689L14.0646 4.51296V1.66814H0.719852V5.00435H9.12503V5.09488L0.357788 17.5733V20.4828H14.0906V17.1595H5.11641ZM25.3923 7.5517V13.8233C25.3923 15.0259 25.1078 15.9569 24.5647 16.6035C24.0087 17.2629 23.3233 17.5862 22.5216 17.5862C21.694 17.5862 21.0991 17.3535 20.7371 16.888C20.375 16.4224 20.207 15.5948 20.207 14.431V7.5517H16.7414V15.3362C16.7414 16.306 16.8449 17.1336 17.0776 17.832C17.3104 18.5302 17.6336 19.0863 18.0734 19.5001C18.513 19.9139 19.0043 20.2241 19.5733 20.4181C20.1293 20.6121 20.7759 20.7026 21.5 20.7026C22.2371 20.7026 22.9354 20.5604 23.5949 20.2501C24.2543 19.9397 24.8363 19.5001 25.3406 18.9052H25.3923V20.4828H28.8578V7.5517H25.3923ZM39.6682 7.3319C38.8922 7.3319 38.181 7.52588 37.5086 7.88792C36.8363 8.25008 36.2543 8.78017 35.763 9.45261H35.7241V7.5517H32.2586V20.4828H35.7241V14.4828C35.7241 13.5001 36.0087 12.6854 36.5905 12.0518C37.1725 11.4311 37.9871 11.1078 39.0215 11.1078C39.2802 11.1078 39.5906 11.1207 39.9397 11.1466V7.34492C39.888 7.34492 39.7975 7.3319 39.6682 7.3319ZM44.0777 5.72848C44.6595 5.72848 45.1638 5.52158 45.5906 5.10779C46.0044 4.694 46.2242 4.20262 46.2242 3.60779C46.2242 3.03883 46.0044 2.53452 45.5906 2.12073C45.1638 1.70694 44.6595 1.50004 44.0777 1.50004C43.4828 1.50004 42.9656 1.70694 42.5518 2.12073C42.138 2.53452 41.931 3.03883 41.931 3.60779C41.931 3.99572 42.0216 4.3578 42.2156 4.68107C42.3966 5.00435 42.6552 5.26293 42.9914 5.44401C43.3276 5.63799 43.6897 5.72848 44.0777 5.72848ZM42.3448 20.4828H45.8104V7.5517H42.3448V20.4828ZM63.8751 20.4828H67.625V1.66814H63.8751V20.4828ZM79.2241 7.3319C78.4225 7.3319 77.6596 7.50006 76.9354 7.82326C76.2113 8.14657 75.5906 8.61212 75.0733 9.2199H75.0345V7.5517H71.569V20.4828H75.0345V13.9785C75.0345 12.8534 75.2931 11.9871 75.8233 11.3664C76.3535 10.7587 77.0647 10.4483 77.9698 10.4483C78.8103 10.4483 79.431 10.694 79.8448 11.1724C80.2457 11.6638 80.4526 12.4914 80.4526 13.681V20.4957H83.9181V12.8147C83.9181 11.8449 83.8018 11.0044 83.5819 10.2802C83.3492 9.56903 83.0259 9.00009 82.5992 8.57328C82.1724 8.15948 81.6811 7.84919 81.125 7.6423C80.569 7.4354 79.9354 7.3319 79.2241 7.3319ZM91.263 20.7026C92.0517 20.7026 92.6983 20.6379 93.2026 20.4957C93.694 20.3664 94.1983 20.1595 94.6897 19.8879L93.7975 17.1207C93.2026 17.4311 92.6595 17.5733 92.1681 17.5733C91.7543 17.5733 91.4699 17.444 91.2888 17.1724C91.1078 16.9138 91.0302 16.4871 91.0302 15.9182V10.4224H94.5474V7.5517H91.0302V2.94832L87.5647 3.32331V7.5517H86.0388V10.4224H87.5647V16.3966C87.5647 17.819 87.888 18.8923 88.5474 19.6164C89.2069 20.3406 90.1121 20.7026 91.263 20.7026ZM108.526 13.9009C108.526 12.6465 108.254 11.5216 107.737 10.5259C107.207 9.53019 106.457 8.75435 105.5 8.18541C104.53 7.61637 103.418 7.3319 102.177 7.3319C101.272 7.3319 100.418 7.50006 99.6293 7.82326C98.8277 8.15948 98.1552 8.61212 97.5863 9.19397C97.0173 9.77592 96.5776 10.4871 96.2543 11.3147C95.9181 12.1423 95.763 13.0474 95.763 14.0043C95.763 15.3233 96.0474 16.5 96.6294 17.5216C97.2112 18.5561 98.013 19.3449 99.0215 19.8879C100.03 20.431 101.155 20.7026 102.422 20.7026C103.664 20.7026 104.75 20.4828 105.707 20.0432C106.651 19.6035 107.414 19.0087 108.009 18.2587L105.759 16.1638C104.944 17.1466 103.909 17.638 102.668 17.6251C101.841 17.6251 101.129 17.3923 100.547 16.9526C99.9655 16.5129 99.5776 15.9182 99.3707 15.1423H108.435C108.487 14.9354 108.526 14.5216 108.526 13.9009ZM102.293 10.3837C103.017 10.3837 103.625 10.5906 104.103 10.9914C104.569 11.3923 104.905 11.9483 105.086 12.6465H99.3837C99.5776 11.9225 99.9267 11.3535 100.444 10.9656C100.961 10.5776 101.569 10.3837 102.293 10.3837ZM118.702 7.3319C117.926 7.3319 117.216 7.52588 116.543 7.88792C115.871 8.25008 115.289 8.78017 114.797 9.45261H114.758V7.5517H111.294V20.4828H114.758V14.4828C114.758 13.5001 115.043 12.6854 115.625 12.0518C116.207 11.4311 117.022 11.1078 118.057 11.1078C118.315 11.1078 118.625 11.1207 118.975 11.1466V7.34492C118.923 7.34492 118.832 7.3319 118.702 7.3319ZM128.879 7.3319C128.078 7.3319 127.315 7.50006 126.591 7.82326C125.867 8.14657 125.246 8.61212 124.728 9.2199H124.689V7.5517H121.225V20.4828H124.689V13.9785C124.689 12.8534 124.949 11.9871 125.478 11.3664C126.009 10.7587 126.72 10.4483 127.625 10.4483C128.465 10.4483 129.087 10.694 129.5 11.1724C129.901 11.6638 130.107 12.4914 130.107 13.681V20.4957H133.573V12.8147C133.573 11.8449 133.457 11.0044 133.237 10.2802C133.004 9.56903 132.681 9.00009 132.255 8.57328C131.828 8.15948 131.337 7.84919 130.78 7.6423C130.224 7.4354 129.591 7.3319 128.879 7.3319ZM141.073 20.7026C142.702 20.7026 143.943 20.3406 144.798 19.5905C145.651 18.8534 146.091 17.8836 146.091 16.6811C146.091 16.3707 146.064 16.0733 146.012 15.8147C145.845 14.9612 145.34 14.263 144.513 13.7457C144.022 13.4354 143.065 13.0216 141.643 12.4914C140.956 12.2328 140.465 12 140.155 11.7931C139.845 11.5862 139.703 11.3535 139.703 11.0949C139.703 10.7845 139.832 10.5518 140.09 10.3837C140.35 10.2155 140.633 10.1251 140.97 10.1251C141.461 10.1251 141.978 10.2415 142.521 10.4742C143.065 10.7069 143.569 11.0431 144.06 11.4958L145.741 8.96125C145.004 8.39231 144.255 7.97852 143.504 7.71987C142.742 7.46122 141.914 7.3319 141.008 7.3319C140.129 7.3319 139.328 7.50006 138.629 7.81035C137.931 8.13366 137.375 8.5863 136.961 9.18106C136.547 9.77592 136.354 10.4483 136.354 11.2113C136.354 11.6251 136.393 12 136.495 12.3363C136.587 12.6854 136.728 12.9957 136.909 13.2543C137.091 13.5259 137.297 13.7716 137.53 13.9785C137.763 14.1983 138.035 14.3923 138.358 14.5733C138.668 14.7544 138.978 14.8966 139.289 15.0259C139.599 15.1552 139.948 15.2846 140.336 15.4138C140.944 15.6208 141.397 15.7759 141.707 15.9052C142.017 16.0346 142.25 16.1768 142.431 16.332C142.599 16.4871 142.69 16.6552 142.69 16.8491C142.69 17.1724 142.548 17.4311 142.263 17.6251C141.978 17.832 141.591 17.9225 141.099 17.9225C139.78 17.9225 138.591 17.4182 137.517 16.4095L135.836 18.8018C137.272 20.069 139.018 20.7026 141.073 20.7026ZM156.487 7.3319C155.647 7.3319 154.871 7.48715 154.147 7.78453C153.422 8.09482 152.802 8.53454 152.284 9.11639H152.233V0.982788H148.768V20.4828H152.233V13.9268C152.233 12.7888 152.492 11.9354 153.035 11.3405C153.564 10.7457 154.302 10.4483 155.258 10.4483C156.112 10.4483 156.746 10.694 157.159 11.1595C157.573 11.638 157.781 12.4527 157.781 13.5905V20.4957H161.259V12.7112C161.259 11.7543 161.142 10.9138 160.909 10.2155C160.677 9.51728 160.341 8.94834 159.914 8.53454C159.475 8.12075 158.982 7.82326 158.414 7.62939C157.845 7.4354 157.211 7.3319 156.487 7.3319ZM166.457 5.72848C167.039 5.72848 167.543 5.52158 167.97 5.10779C168.384 4.694 168.603 4.20262 168.603 3.60779C168.603 3.03883 168.384 2.53452 167.97 2.12073C167.543 1.70694 167.039 1.50004 166.457 1.50004C165.862 1.50004 165.345 1.70694 164.931 2.12073C164.517 2.53452 164.31 3.03883 164.31 3.60779C164.31 3.99572 164.401 4.3578 164.595 4.68107C164.775 5.00435 165.035 5.26293 165.37 5.44401C165.707 5.63799 166.069 5.72848 166.457 5.72848ZM164.725 20.4828H168.19V7.5517H164.725V20.4828ZM179.298 7.3319C177.643 7.3319 176.336 7.90094 175.38 9.03882H175.328V7.5517H171.862V25.7199H175.328V19.0345H175.38C176.298 20.1466 177.564 20.7026 179.194 20.7026C180.074 20.7026 180.901 20.5475 181.664 20.2241C182.426 19.9139 183.086 19.4612 183.629 18.8923C184.172 18.3233 184.612 17.6121 184.922 16.7845C185.232 15.9569 185.388 15.0388 185.388 14.0561C185.388 13.2803 185.284 12.5561 185.091 11.8578C184.884 11.1595 184.599 10.5388 184.237 9.99573C183.875 9.45261 183.436 8.97416 182.944 8.57328C182.439 8.1725 181.871 7.8621 181.25 7.65521C180.63 7.44831 179.97 7.3319 179.298 7.3319ZM178.561 17.5992C177.926 17.5992 177.358 17.4569 176.841 17.1724C176.323 16.888 175.923 16.4613 175.625 15.9182C175.328 15.375 175.185 14.7673 175.185 14.069C175.185 13.5647 175.263 13.0863 175.431 12.6336C175.599 12.194 175.832 11.806 176.129 11.4828C176.414 11.1724 176.775 10.9138 177.189 10.7328C177.603 10.5518 178.069 10.4483 178.561 10.4483C179.504 10.4483 180.293 10.7845 180.927 11.444C181.548 12.1164 181.871 12.9828 181.871 14.069C181.871 15.1164 181.56 15.9699 180.94 16.6164C180.319 17.276 179.53 17.5992 178.561 17.5992Z" fill="black"/>
</svg>
